#!OML:ASF X:\für Bonn\!DataBase\2005_08_10_Bjorn_Final\c3d\bjorn.ASF
:FULLY-SPECIFIED
:DEGREES
262
root 1.52038 4.86358 20.0738 -421.259 -162.806 -717.414
lowerback 51.2037 4.53167 9.16545
upperback 22.6292 -1.24848 2.96994
thorax 5.09052 -5.06723 -1.04069
lowerneck -12.1909 1.54501 -10.3597
upperneck 20.7215 5.47153 -15.0929
head 8.87462 -0.611336 -2.96886
rclavicle 3.02153e-014 3.35946e-014
rhumerus -223.775 -130.181 111.622
rradius 12.7517
rwrist -16.3924
rhand -15.2122 -9.11948
rfingers 7.12502
rthumb 10.9601 -38.8134
lclavicle 3.02153e-014 3.35946e-014
lhumerus -27.743 33.1747 77.776
lradius 7.35858
lwrist -9.2199
lhand -29.0132 -350.102
lfingers 7.12502
lthumb -2.36442 39.8642
rfemur -66.9191 -31.4251 0.853951
rtibia 115.647
rfoot 17.5577 9.63139
rtoes -0.624729
lfemur 115.157 134.984 179.817
ltibia 142.659
lfoot -10.501 -18.8506
ltoes -2.32214
263
root 1.5132 4.84417 20.0692 -421.3 -162.761 -717.638
lowerback 51.5426 4.68077 8.83068
upperback 22.5968 -1.27158 2.96066
thorax 4.9918 -5.15321 -0.874732
lowerneck -12.2081 1.70066 -10.3096
upperneck 20.5301 5.67472 -15.1826
head 8.82186 -0.505581 -2.97915
rclavicle -6.4605e-016 8.24956e-015
rhumerus -223.348 -130.684 111.133
rradius 12.9112
rwrist -16.7945
rhand -15.253 -9.18315
rfingers 7.12502
rthumb 10.9207 -38.8792
lclavicle -6.4605e-016 8.24956e-015
lhumerus -28.1941 32.8677 77.6672
lradius 7.63004
lwrist -8.84651
lhand -28.8833 -350.268
lfingers 7.12502
lthumb -2.23899 39.6999
rfemur -67.0693 -31.883 0.615586
rtibia 115.794
rfoot 17.7542 10.1723
rtoes 0.00653461
lfemur 114.887 135.136 179.557
ltibia 142.651
lfoot -9.94823 -18.8319
ltoes -2.56114
264
root 1.50562 4.82416 20.0636 -421.375 -162.695 -717.835
lowerback 51.8875 4.80908 8.52536
upperback 22.5798 -1.32074 2.95505
thorax 4.91481 -5.25365 -0.712163
lowerneck -12.1525 1.85749 -10.259
upperneck 20.2773 5.85881 -15.2903
head 8.73418 -0.401172 -2.99557
rclavicle -5.31749e-015 -9.14409e-015
rhumerus -222.882 -131.231 110.603
rradius 13.0699
rwrist -17.1805
rhand -15.2836 -9.23756
rfingers 7.12502
rthumb 10.8912 -38.9351
lclavicle -5.31749e-015 -9.14409e-015
lhumerus -28.6515 32.5752 77.5884
lradius 7.95541
lwrist -8.47621
lhand -28.7701 -350.473
lfingers 7.12502
lthumb -2.12971 39.4962
rfemur -67.1573 -32.3813 0.336656
rtibia 115.92
rfoot 18.0069 10.7105
rtoes 0.804711
lfemur 114.592 135.448 179.248
ltibia 142.634
lfoot -9.35775 -18.7813
ltoes -2.59746
265
root 1.49906 4.8047 20.0562 -421.471 -162.725 -717.996
lowerback 52.251 4.91772 8.31812
upperback 22.5548 -1.35252 2.93269
thorax 4.83555 -5.33498 -0.616658
lowerneck -12.0216 2.00756 -10.1246
upperneck 20.0193 6.00718 -15.4174
head 8.63129 -0.303498 -3.03536
rclavicle -5.41688e-015 -2.06736e-014
rhumerus -222.34 -131.956 109.826
rradius 13.3144
rwrist -17.8258
rhand -15.3461 -9.32924
rfingers 7.12502
rthumb 10.831 -39.03
lclavicle -5.41688e-015 -2.06736e-014
lhumerus -29.1503 32.2203 77.4171
lradius 8.31153
lwrist -8.09557
lhand -28.5951 -350.717
lfingers 7.12502
lthumb -1.96063 39.254
rfemur -67.2184 -32.8001 0.179894
rtibia 116.035
rfoot 18.2261 11.2286
rtoes 1.56305
lfemur 114.326 135.601 179.126
ltibia 142.604
lfoot -8.77491 -18.8099
ltoes -2.51737
266
root 1.49316 4.78334 20.0493 -421.584 -162.774 -718.09
lowerback 52.6257 4.99626 8.15434
upperback 22.5198 -1.40288 2.95029
thorax 4.74974 -5.42749 -0.490943
lowerneck -11.8188 2.15848 -10.068
upperneck 19.7034 6.14372 -15.5475
head 8.49417 -0.210567 -3.06382
rclavicle -8.00108e-015 4.18442e-014
rhumerus -221.857 -132.632 109.189
rradius 13.5553
rwrist -18.3619
rhand -15.4026 -9.41944
rfingers 7.12502
rthumb 10.7764 -39.123
lclavicle -8.00108e-015 4.18442e-014
lhumerus -29.661 31.9047 77.2991
lradius 8.71136
lwrist -7.77183
lhand -28.4916 -350.878
lfingers 7.12502
lthumb -1.86069 39.0935
rfemur -67.2696 -33.2243 0.0762028
rtibia 116.154
rfoot 18.4858 11.7175
rtoes 2.37555
lfemur 113.945 135.948 178.946
ltibia 142.553
lfoot -8.16882 -18.7318
ltoes -2.51554
